<svg width="600" height="559" viewBox="0 0 600 559" fill="none" xmlns="http://www.w3.org/2000/svg">
<path d="M499.721 279.377C489.305 273.562 454.544 254.21 422.474 236.371C390.405 218.533 362.467 202.814 360.39 201.44C356.97 199.179 354.12 193.986 330.245 146.524C301.757 89.8917 287.057 61.6891 286.057 61.7492C285.71 61.7703 282.061 66.5568 277.95 72.3865C237.802 129.311 224.023 148.443 223.22 148.378C222.896 148.352 220.838 145.805 218.645 142.719C216.452 139.632 207.826 128.168 199.476 117.244C185.938 99.5308 184.434 97.1808 185.584 95.5392C186.293 94.5267 203.216 76.3309 223.192 55.1042C243.167 33.8774 262.358 13.3367 265.839 9.45816C269.319 5.57961 273.132 1.8615 274.311 1.19568C277.367 -0.530177 283.092 -0.361862 285.798 1.53343C287.729 2.88614 334.712 58.8218 364.39 95.1014C368.874 100.583 378.284 112.068 385.299 120.624C392.315 129.179 408.595 149.085 421.478 164.858C434.36 180.632 448.512 197.852 452.926 203.126C457.339 208.4 468.762 222.358 478.31 234.144C522.983 289.291 523.489 289.97 519.904 289.955C519.219 289.952 510.136 285.192 499.721 279.377Z" fill="black"/>
<path d="M108.89 509.831C110.361 510.396 110.501 505.649 110.501 455.098V399.748L66.8939 399.316C21.9296 398.87 15.6957 398.343 12.4003 394.701C10.2045 392.275 11.2576 390.123 15.6399 388.081C29.4335 381.654 40.5846 375.614 49.148 369.93C61.2712 361.883 78.193 347.502 83.1071 341.069L86.7444 336.308L47.5405 335.742C5.45889 335.134 0.685989 334.581 0.0654708 330.24C-0.329133 327.479 0.777658 326.707 11.3267 322.389C33.0373 313.503 54.1055 299.439 71.1057 282.485L80.1005 273.515L45.7136 273.016C8.73368 272.48 5.70973 272.055 5.03042 267.295C4.77776 265.525 5.57631 264.692 9.01731 263.14C37.6498 250.218 47.268 244.688 62.3879 232.456C70.8048 225.647 80.5978 215.911 80.5996 214.351C80.6001 213.999 69.5561 213.839 56.0576 213.995C35.1864 214.236 31.1603 214.046 29.1453 212.726C24.2686 209.531 26.3073 206.445 36.7431 201.227C53.2995 192.948 81.1093 171.423 91.9319 158.511L95.7894 153.908L76.3854 153.41C56.6329 152.902 53.6874 152.301 53.6874 148.779C53.6874 148.011 56.9654 143.244 60.9719 138.186C70.4723 126.193 98.3411 87.138 116.073 60.9688C118.933 56.7479 121.673 53.7455 122.668 53.7426C124.796 53.7365 125.967 55.26 144.496 82.1441C157.452 100.943 182.009 134.344 190.906 145.27C196.403 152.019 191.169 153.666 165.685 153.206C156.712 153.044 149.371 153.174 149.371 153.495C149.376 155.387 158.096 164.662 167.218 172.478C180.131 183.542 197.017 194.929 210.518 201.676C217.974 205.403 220.717 207.282 220.936 208.815C221.581 213.329 219.593 213.68 190.337 214.21L162.828 214.708L170.802 222.717C185.308 237.287 202.445 248.792 224.162 258.539C237.532 264.541 239.686 266.007 238.741 268.469C237.42 271.911 233.104 272.389 198.212 272.956L163.825 273.515L174.803 284.479C191.195 300.85 211.434 314.347 231.497 322.287C236.678 324.337 241.709 326.889 242.676 327.957C244.359 329.817 244.35 329.984 242.465 331.868C239.274 335.06 226.772 335.969 190.839 335.624C172.966 335.452 158.342 335.616 158.342 335.993C158.343 337.406 174.85 354.038 181.795 359.625C195.594 370.727 213.039 381.102 227.398 386.748C235.813 390.057 238.266 393.38 233.985 395.671C228.369 398.677 214.621 399.592 175.038 399.596L135.419 399.6V461.959V524.319L131.042 522.73L126.557 520.736L122.072 518.743L116.092 515.254L112.105 512.762L108.89 509.831Z" fill="black"/>
<path d="M597.793 290.598C596.687 289.711 573.017 275.866 554.54 265.299C501.751 235.109 506.104 238.011 500.645 229.372C491.319 214.614 437.138 132.946 434.186 129.197L431.21 125.417L427.755 129.453C425.855 131.673 423.888 133.235 423.384 132.923C422.499 132.376 407.477 114.712 398.811 104.027L394.583 98.8143L404.682 87.9873C410.236 82.0325 416.4 75.2166 418.378 72.8408C422.451 67.9517 426.127 65.6981 430.032 65.6981C433.519 65.6981 436.952 69.3193 456.861 94.0021C465.632 104.876 477.23 119.215 482.634 125.867C488.038 132.518 500.234 147.604 509.735 159.39C576.953 242.77 582.078 249.082 591.381 259.938L599.393 269.285L600 276.539V281.523L597.793 290.598Z" fill="black"/>
<path d="M263.687 556.719C263.4 555.971 260.828 552.156 257.972 548.241C252.888 541.272 252.793 541.015 253.419 535.896C254.885 523.919 255.266 512.496 254.221 511.85C253.315 511.29 232.257 529.775 226.773 535.943C224.333 538.689 222.231 544.763 222.177 549.228L222.133 552.836C212.774 552.631 208.288 551.635 198.368 547.996C198.728 548.059 199.176 543.7 199.365 538.308L199.707 528.504L205.486 521.444C212.325 513.087 220.721 499.433 222.122 494.387C223.418 489.724 223.387 484.656 221.987 472.346C221.029 463.925 220.592 462.389 219.291 462.888C218.437 463.216 215.845 463.744 213.532 464.061C205.298 465.189 195.591 457.653 196.4 450.761C196.685 448.332 197.378 447.889 203.196 446.419C212.954 443.952 215.802 442.102 226.135 431.515C236.516 420.879 242.12 417.372 251.511 415.636C255.29 414.938 277.137 414.545 312.769 414.536C358.359 414.525 369.269 414.258 374.465 413.033C386.881 410.106 397.396 404.43 413.791 391.805C421.017 386.24 423.372 383.885 422.871 382.726C421.512 379.581 419.484 371.191 419.49 368.733C419.493 367.345 419.963 364.528 420.533 362.472C421.347 359.542 422.065 358.734 423.856 358.734C426.658 358.734 431.781 362.651 436.429 368.347C440.366 373.172 443.2 374.399 446.425 372.673C448.364 371.635 448.558 370.948 448.022 367.033C446.349 354.832 438.321 339.04 428.398 328.433C406.182 304.683 372.297 296.534 346.989 308.854C337.496 313.475 331.121 319.005 325.594 327.411C323.278 330.934 320.967 333.816 320.459 333.816C318.897 333.816 320.528 324.538 323.097 318.8C329.641 304.184 345.468 291.94 364.522 286.754C374.672 283.991 395 283.791 404.534 286.359C413.499 288.775 429.734 296.714 437.057 302.264C458.212 318.297 472.8 344.22 474.99 369.674L475.631 377.126L487.847 389.28C494.566 395.965 500.557 402.357 501.161 403.484C502.748 406.451 500.118 412.157 496.163 414.324C487.904 418.85 489.095 418.408 478.428 417.796L466.99 416.153C462.505 414.95 458.702 415.549 456.603 417.79C453.715 420.873 452.777 423.703 450.334 436.699C449.172 442.882 447.527 450.408 446.678 453.423C442.919 466.779 433.717 480.704 422.394 490.168C405.294 504.462 404.534 505.844 404.534 522.629L405.141 528.212L406.138 531.7L407.134 534.69L402.649 536.684L397.167 538.677L391.685 540.172L383.331 541.722C383.637 541.437 376.07 514.494 374.628 510.734L373.48 507.744L371.986 511.233C369.942 516.001 364.097 537.532 363.221 543.515C362.656 547.371 362.78 548.146 362.78 548.644L357.298 550.14L350.82 551.635L344.839 552.631L338.887 553.011C339.962 552.347 340.315 546.776 340.581 526.221L340.917 500.269L319.151 500.276L297.386 500.284L288.665 517.083C283.685 526.675 279.943 535.099 279.943 536.717C279.943 538.381 282.259 543.431 285.557 548.958L291.172 558.366L284.538 558.612L277.56 558.113L270.085 557.615L263.687 556.719Z" fill="black"/>
</svg>
