<svg width="150" height="140" viewBox="0 0 150 140" fill="none" xmlns="http://www.w3.org/2000/svg">
<path d="M124.93 69.8443C122.326 68.3905 113.636 63.5524 105.619 59.0928C97.6012 54.6333 90.6167 50.7036 90.0975 50.3601C89.2426 49.7947 88.53 48.4964 82.5612 36.6309C75.4393 22.4729 71.7642 15.4223 71.5142 15.4373C71.4274 15.4426 70.5153 16.6392 69.4874 18.0966C59.4506 32.3278 56.0058 37.1109 55.805 37.0945C55.7241 37.0879 55.2094 36.4513 54.6612 35.6797C54.113 34.9081 51.9565 32.0421 49.869 29.3109C46.4845 24.8827 46.1084 24.2952 46.3959 23.8848C46.5732 23.6317 50.8041 19.0827 55.7979 13.776C60.7917 8.46936 65.5896 3.33418 66.4597 2.36454C67.3298 1.3949 68.283 0.465374 68.5777 0.298919C69.3418 -0.132544 70.773 -0.0904656 71.4495 0.383356C71.9323 0.721536 83.6781 14.7055 91.0975 23.7753C92.2186 25.1458 94.5709 28.0171 96.3248 30.1559C98.0787 32.2948 102.149 37.2712 105.369 41.2146C108.59 45.158 112.128 49.4631 113.231 50.7815C114.335 52.0999 117.191 55.5895 119.578 58.536C130.746 72.3227 130.872 72.4926 129.976 72.4888C129.805 72.4881 127.534 71.2981 124.93 69.8443Z" fill="#0F8ED9"/>
<path d="M27.2226 127.458C27.5902 127.599 27.6251 126.412 27.6251 113.775V99.9369L16.7235 99.8289C5.4824 99.7176 3.92393 99.5857 3.10007 98.6753C2.55113 98.0687 2.81441 97.5307 3.90997 97.0203C7.35838 95.4136 10.1462 93.9035 12.287 92.4825C15.3178 90.4708 19.5483 86.8755 20.7768 85.2673L21.6861 84.077L11.8851 83.9355C1.36472 83.7835 0.171497 83.6452 0.0163677 82.5599C-0.0822832 81.8697 0.194414 81.6768 2.83167 80.5974C8.25932 78.3757 13.5264 74.8598 17.7764 70.6213L20.0251 68.3786L11.4284 68.2541C2.18342 68.1201 1.42743 68.0138 1.2576 66.8238C1.19444 66.3812 1.39408 66.1731 2.25433 65.7849C9.41245 62.5545 11.817 61.1721 15.597 58.1141C17.7012 56.4117 20.1494 53.9778 20.1499 53.5877C20.15 53.4998 17.389 53.4597 14.0144 53.4988C8.79661 53.559 7.79007 53.5116 7.28633 53.1815C6.06714 52.3827 6.57682 51.6113 9.18578 50.3067C13.3249 48.237 20.2773 42.8558 22.983 39.6276L23.9474 38.477L19.0964 38.3524C14.1582 38.2256 13.4218 38.0754 13.4218 37.1948C13.4218 37.0028 14.2414 35.8111 15.243 34.5466C17.6181 31.5482 24.5853 21.7845 29.0183 15.2422C29.7333 14.187 30.4183 13.4364 30.667 13.4356C31.1989 13.4341 31.4917 13.815 36.1239 20.536C39.3631 25.2357 45.5022 33.5859 47.7266 36.3174C49.1006 38.0048 47.7922 38.4165 41.4212 38.3015C39.1779 38.261 37.3427 38.2935 37.3428 38.3738C37.3439 38.8466 39.5239 41.1654 41.8045 43.1195C45.0328 45.8856 49.2542 48.7322 52.6294 50.4191C54.4934 51.3507 55.1791 51.8205 55.2339 52.2037C55.3951 53.3323 54.8983 53.4199 47.5841 53.5524L40.7071 53.677L42.7005 55.6793C46.3271 59.3219 50.6112 62.1979 56.0404 64.6348C59.3829 66.1351 59.9214 66.5019 59.6853 67.1172C59.3551 67.9777 58.2759 68.0972 49.553 68.2389L40.9563 68.3787L43.7007 71.1196C47.7987 75.2125 52.8584 78.5868 57.8742 80.5716C59.1696 81.0843 60.4273 81.7222 60.669 81.9893C61.0897 82.4542 61.0875 82.4959 60.6163 82.9671C59.8185 83.7649 56.693 83.9923 47.7097 83.9059C43.2414 83.863 39.5855 83.904 39.5856 83.9981C39.5859 84.3514 43.7124 88.5096 45.4487 89.9063C48.8986 92.6817 53.2598 95.2755 56.8494 96.687C58.9534 97.5143 59.5666 98.345 58.4964 98.9177C57.0923 99.6692 53.6553 99.898 43.7596 99.899L33.8546 99.8999V115.49V131.08L32.7606 130.682L31.6393 130.184L30.518 129.686L29.0229 128.814L28.0262 128.191L27.2226 127.458Z" fill="#6E9E6B"/>
<path d="M149.448 72.6494C149.172 72.4277 143.254 68.9665 138.635 66.3248C125.438 58.7773 126.526 59.5028 125.161 57.343C122.83 53.6536 109.285 33.2365 108.547 32.2992L107.803 31.3542L106.939 32.3632C106.464 32.9182 105.972 33.3086 105.846 33.2308C105.625 33.094 101.869 28.6779 99.7027 26.0067L98.6457 24.7036L101.17 21.9968C102.559 20.5081 104.1 18.8041 104.595 18.2102C105.613 16.9879 106.532 16.4245 107.508 16.4245C108.38 16.4245 109.238 17.3298 114.215 23.5005C116.408 26.219 119.308 29.8038 120.659 31.4667C122.01 33.1296 125.058 36.9009 127.434 39.8475C144.238 60.6926 145.519 62.2704 147.845 64.9844L149.848 67.3213L150 69.1349V70.3808L149.448 72.6494Z" fill="#7EE0FF"/>
<path d="M65.9218 139.18C65.85 138.993 65.2071 138.039 64.4931 137.06C63.2219 135.318 63.1981 135.254 63.3548 133.974C63.7213 130.98 63.8165 128.124 63.5553 127.963C63.3288 127.823 58.0642 132.444 56.6933 133.986C56.0832 134.672 55.5578 136.191 55.5443 137.307L55.5333 138.209C53.1934 138.158 52.0721 137.909 49.592 136.999C49.6819 137.015 49.794 135.925 49.8411 134.577L49.9268 132.126L51.3714 130.361C53.0812 128.272 55.1802 124.858 55.5306 123.597C55.8545 122.431 55.8467 121.164 55.4967 118.086C55.2573 115.981 55.1479 115.597 54.8228 115.722C54.6092 115.804 53.9614 115.936 53.383 116.015C51.3246 116.297 48.8976 114.413 49.0999 112.69C49.1711 112.083 49.3445 111.972 50.7989 111.605C53.2384 110.988 53.9504 110.525 56.5337 107.879C59.129 105.22 60.5301 104.343 62.8777 103.909C63.8224 103.734 69.2843 103.636 78.1922 103.634C89.5897 103.631 92.3173 103.564 93.6161 103.258C96.7202 102.527 99.3491 101.107 103.448 97.9511C105.254 96.5601 105.843 95.9714 105.718 95.6815C105.378 94.8953 104.871 92.7977 104.872 92.1834C104.873 91.8363 104.991 91.1319 105.133 90.618C105.337 89.8855 105.516 89.6836 105.964 89.6836C106.665 89.6836 107.945 90.6628 109.107 92.0867C110.091 93.2929 110.8 93.5996 111.606 93.1682C112.091 92.9088 112.14 92.737 112.005 91.7583C111.587 88.7081 109.58 84.76 107.1 82.1081C101.545 76.1707 93.0743 74.1334 86.7471 77.2135C84.3741 78.3687 82.7802 79.7512 81.3985 81.8527C80.8195 82.7334 80.2417 83.454 80.1147 83.454C79.7243 83.454 80.1319 81.1346 80.7742 79.7C82.4104 76.046 86.3671 72.9851 91.1304 71.6885C93.668 70.9978 98.75 70.9476 101.133 71.5898C103.375 72.1937 107.433 74.1784 109.264 75.566C114.553 79.5742 118.2 86.055 118.748 92.4186L118.908 94.2814L121.962 97.32C123.642 98.9912 125.139 100.589 125.29 100.871C125.687 101.613 125.029 103.039 124.041 103.581C121.976 104.713 122.274 104.602 119.607 104.449L116.747 104.038C115.626 103.737 114.676 103.887 114.151 104.448C113.429 105.218 113.194 105.926 112.584 109.175C112.293 110.72 111.882 112.602 111.67 113.356C110.73 116.695 108.429 120.176 105.599 122.542C101.323 126.116 101.133 126.461 101.133 130.657L101.285 132.053L101.534 132.925L101.784 133.673L100.662 134.171L99.2918 134.669L97.9213 135.043L95.8327 135.43C95.9093 135.359 94.0175 128.624 93.6569 127.684L93.3701 126.936L92.9964 127.808C92.4856 129 91.0242 134.383 90.8052 135.879C90.6641 136.843 90.6951 137.037 90.6951 137.161L89.3246 137.535L87.7049 137.909L86.2098 138.158L84.7217 138.253C84.9906 138.087 85.0787 136.694 85.1452 131.555L85.2292 125.067L79.7879 125.069L74.3465 125.071L72.1662 129.271C70.9213 131.669 69.9858 133.775 69.9858 134.179C69.9858 134.595 70.5648 135.858 71.3894 137.24L72.7929 139.591L71.1344 139.653L69.3901 139.528L67.5213 139.404L65.9218 139.18Z" fill="#7E736F"/>
</svg>
