<svg width="565" height="140" viewBox="0 0 565 140" fill="none" xmlns="http://www.w3.org/2000/svg">
<path d="M124.93 69.8443C122.326 68.3905 113.636 63.5524 105.619 59.0928C97.6013 54.6333 90.6167 50.7036 90.0974 50.3601C89.2426 49.7947 88.53 48.4964 82.5612 36.6309C75.4393 22.4729 71.7642 15.4223 71.5142 15.4373C71.4274 15.4426 70.5153 16.6392 69.4875 18.0966C59.4506 32.3278 56.0058 37.1109 55.805 37.0945C55.7241 37.0879 55.2094 36.4513 54.6612 35.6797C54.113 34.9081 51.9565 32.0421 49.869 29.3109C46.4845 24.8827 46.1084 24.2952 46.3959 23.8848C46.5732 23.6317 50.8041 19.0827 55.7979 13.776C60.7917 8.46936 65.5896 3.33418 66.4597 2.36454C67.3298 1.3949 68.283 0.465374 68.5777 0.298919C69.3418 -0.132544 70.773 -0.0904656 71.4495 0.383356C71.9323 0.721536 83.6781 14.7055 91.0975 23.7753C92.2186 25.1458 94.5709 28.0171 96.3248 30.1559C98.0787 32.2948 102.149 37.2712 105.369 41.2145C108.59 45.158 112.128 49.4631 113.231 50.7815C114.335 52.0999 117.191 55.5895 119.578 58.536C130.746 72.3227 130.872 72.4926 129.976 72.4888C129.805 72.4881 127.534 71.2981 124.93 69.8443Z" fill="#00131A"/>
<path d="M27.2226 127.458C27.5902 127.599 27.6251 126.412 27.6251 113.775V99.9369L16.7235 99.8289C5.4824 99.7176 3.92393 99.5857 3.10007 98.6753C2.55113 98.0687 2.81441 97.5307 3.90997 97.0203C7.35838 95.4136 10.1462 93.9035 12.287 92.4825C15.3178 90.4708 19.5483 86.8755 20.7768 85.2673L21.6861 84.077L11.8851 83.9355C1.36472 83.7835 0.171497 83.6452 0.0163677 82.5599C-0.0822832 81.8697 0.194414 81.6768 2.83167 80.5974C8.25932 78.3757 13.5264 74.8598 17.7764 70.6213L20.0251 68.3786L11.4284 68.2541C2.18342 68.1201 1.42743 68.0138 1.2576 66.8238C1.19444 66.3812 1.39408 66.1731 2.25433 65.7849C9.41245 62.5545 11.817 61.1721 15.597 58.1141C17.7012 56.4117 20.1494 53.9778 20.1499 53.5877C20.15 53.4998 17.389 53.4597 14.0144 53.4988C8.79661 53.559 7.79007 53.5116 7.28633 53.1815C6.06714 52.3827 6.57682 51.6113 9.18578 50.3067C13.3249 48.237 20.2773 42.8558 22.983 39.6276L23.9474 38.477L19.0964 38.3524C14.1582 38.2256 13.4218 38.0754 13.4218 37.1948C13.4218 37.0027 14.2414 35.8111 15.243 34.5466C17.6181 31.5482 24.5853 21.7845 29.0183 15.2422C29.7333 14.187 30.4183 13.4364 30.667 13.4356C31.1989 13.4341 31.4917 13.815 36.1239 20.536C39.3631 25.2357 45.5022 33.5859 47.7266 36.3174C49.1006 38.0048 47.7922 38.4165 41.4212 38.3015C39.1779 38.261 37.3427 38.2935 37.3428 38.3738C37.3439 38.8466 39.5239 41.1654 41.8045 43.1195C45.0328 45.8856 49.2542 48.7322 52.6294 50.4191C54.4934 51.3507 55.1791 51.8205 55.2339 52.2037C55.3951 53.3323 54.8983 53.4199 47.5841 53.5524L40.7071 53.677L42.7005 55.6793C46.3271 59.3219 50.6112 62.1979 56.0404 64.6348C59.3829 66.1351 59.9214 66.5019 59.6853 67.1172C59.3551 67.9777 58.2759 68.0972 49.553 68.2389L40.9563 68.3787L43.7007 71.1196C47.7987 75.2125 52.8584 78.5868 57.8742 80.5716C59.1696 81.0843 60.4273 81.7222 60.669 81.9893C61.0897 82.4542 61.0875 82.4959 60.6163 82.9671C59.8185 83.7649 56.693 83.9923 47.7097 83.9059C43.2414 83.863 39.5855 83.904 39.5856 83.9981C39.5859 84.3514 43.7124 88.5096 45.4487 89.9063C48.8986 92.6817 53.2598 95.2755 56.8494 96.687C58.9534 97.5143 59.5666 98.345 58.4964 98.9177C57.0923 99.6692 53.6553 99.898 43.7596 99.899L33.8546 99.8999V115.49V131.08L32.7606 130.682L31.6393 130.184L30.518 129.686L29.0229 128.814L28.0262 128.191L27.2226 127.458Z" fill="#00131A"/>
<path d="M149.448 72.6494C149.172 72.4277 143.254 68.9665 138.635 66.3248C125.438 58.7773 126.526 59.5028 125.161 57.343C122.83 53.6536 109.285 33.2365 108.547 32.2992L107.803 31.3542L106.939 32.3632C106.464 32.9182 105.972 33.3086 105.846 33.2308C105.625 33.094 101.869 28.6779 99.7027 26.0067L98.6457 24.7036L101.17 21.9968C102.559 20.5081 104.1 18.8041 104.595 18.2102C105.613 16.9879 106.532 16.4245 107.508 16.4245C108.38 16.4245 109.238 17.3298 114.215 23.5005C116.408 26.219 119.308 29.8038 120.659 31.4667C122.01 33.1296 125.058 36.9009 127.434 39.8475C144.238 60.6926 145.519 62.2704 147.845 64.9844L149.848 67.3213L150 69.1349V70.3808L149.448 72.6494Z" fill="#00131A"/>
<path d="M65.9218 139.18C65.85 138.993 65.2071 138.039 64.4931 137.06C63.2219 135.318 63.1981 135.254 63.3548 133.974C63.7213 130.98 63.8165 128.124 63.5553 127.963C63.3288 127.823 58.0642 132.444 56.6933 133.986C56.0832 134.672 55.5578 136.191 55.5443 137.307L55.5333 138.209C53.1934 138.158 52.0721 137.909 49.592 136.999C49.6819 137.015 49.794 135.925 49.8411 134.577L49.9268 132.126L51.3714 130.361C53.0812 128.272 55.1802 124.858 55.5306 123.597C55.8545 122.431 55.8467 121.164 55.4967 118.086C55.2573 115.981 55.1479 115.597 54.8227 115.722C54.6092 115.804 53.9614 115.936 53.383 116.015C51.3246 116.297 48.8976 114.413 49.0999 112.69C49.1711 112.083 49.3445 111.972 50.7989 111.605C53.2384 110.988 53.9504 110.525 56.5337 107.879C59.129 105.22 60.5301 104.343 62.8777 103.909C63.8225 103.734 69.2843 103.636 78.1922 103.634C89.5897 103.631 92.3173 103.564 93.6161 103.258C96.7202 102.527 99.3491 101.107 103.448 97.9511C105.254 96.5601 105.843 95.9714 105.718 95.6815C105.378 94.8953 104.871 92.7977 104.872 92.1834C104.873 91.8363 104.991 91.1319 105.133 90.618C105.337 89.8855 105.516 89.6836 105.964 89.6836C106.665 89.6836 107.945 90.6628 109.107 92.0867C110.091 93.2929 110.8 93.5996 111.606 93.1682C112.091 92.9088 112.14 92.737 112.005 91.7583C111.587 88.7081 109.58 84.76 107.1 82.1081C101.545 76.1707 93.0743 74.1334 86.7471 77.2135C84.3741 78.3687 82.7802 79.7512 81.3985 81.8527C80.8195 82.7334 80.2417 83.454 80.1147 83.454C79.7243 83.454 80.1319 81.1346 80.7742 79.7C82.4104 76.046 86.367 72.9851 91.1304 71.6885C93.668 70.9978 98.75 70.9476 101.133 71.5898C103.375 72.1937 107.433 74.1784 109.264 75.566C114.553 79.5742 118.2 86.055 118.748 92.4186L118.908 94.2814L121.962 97.32C123.642 98.9912 125.139 100.589 125.29 100.871C125.687 101.613 125.029 103.039 124.041 103.581C121.976 104.713 122.274 104.602 119.607 104.449L116.747 104.038C115.626 103.737 114.676 103.887 114.151 104.447C113.429 105.218 113.194 105.926 112.584 109.175C112.293 110.72 111.882 112.602 111.67 113.356C110.73 116.695 108.429 120.176 105.599 122.542C101.323 126.116 101.133 126.461 101.133 130.657L101.285 132.053L101.534 132.925L101.784 133.673L100.662 134.171L99.2918 134.669L97.9213 135.043L95.8327 135.43C95.9094 135.359 94.0175 128.624 93.6569 127.684L93.3701 126.936L92.9964 127.808C92.4856 129 91.0242 134.383 90.8052 135.879C90.6641 136.843 90.6951 137.037 90.6951 137.161L89.3246 137.535L87.7049 137.909L86.2098 138.158L84.7217 138.253C84.9906 138.087 85.0787 136.694 85.1452 131.555L85.2292 125.067L79.7879 125.069L74.3465 125.071L72.1662 129.271C70.9213 131.669 69.9858 133.775 69.9858 134.179C69.9858 134.595 70.5648 135.858 71.3894 137.24L72.7929 139.591L71.1344 139.653L69.3901 139.528L67.5213 139.404L65.9218 139.18Z" fill="#00131A"/>
<path d="M209.64 94.864L186.504 44.56H187.464L184.2 77.104C183.88 80.496 183.848 83.12 184.104 84.976C184.36 86.768 185 88.048 186.024 88.816C187.112 89.52 188.584 89.968 190.44 90.16C190.632 90.8 190.76 91.536 190.824 92.368C190.888 93.2 190.92 93.84 190.92 94.288C189.384 94.16 187.624 94.064 185.64 94C183.72 94 182.056 94 180.648 94C179.752 94 178.696 94 177.48 94C176.328 94.064 175.176 94.096 174.023 94.096C172.936 94.16 171.944 94.224 171.048 94.288C171.048 93.84 171.08 93.2 171.144 92.368C171.208 91.536 171.336 90.8 171.528 90.16C173.256 89.968 174.6 89.552 175.56 88.912C176.584 88.208 177.384 86.896 177.96 84.976C178.536 83.056 178.984 80.144 179.304 76.24L182.376 42.064C182.568 39.76 182.472 37.968 182.088 36.688C181.768 35.344 181.096 34.384 180.072 33.808C179.112 33.232 177.736 32.944 175.944 32.944C175.752 32.304 175.624 31.6 175.56 30.832C175.496 30.064 175.464 29.392 175.464 28.816C176.104 28.88 176.84 28.944 177.672 29.008C178.504 29.008 179.368 29.04 180.264 29.104C181.16 29.104 181.992 29.104 182.76 29.104C183.592 29.104 184.392 29.104 185.16 29.104C185.992 29.04 186.792 29.008 187.56 29.008C188.392 28.944 189.224 28.88 190.056 28.816L215.208 84.4H213.096L234.984 28.816C235.752 28.88 236.552 28.944 237.384 29.008C238.216 29.008 239.048 29.04 239.88 29.104C240.776 29.104 241.64 29.104 242.472 29.104C243.304 29.104 244.104 29.104 244.872 29.104C245.704 29.04 246.504 29.008 247.272 29.008C248.104 28.944 248.936 28.88 249.768 28.816C249.768 29.456 249.736 30.128 249.672 30.832C249.608 31.536 249.48 32.24 249.288 32.944C247.048 32.944 245.288 33.616 244.008 34.96C242.792 36.24 242.376 38.8 242.76 42.64L246.216 77.872C246.536 81.008 246.952 83.44 247.464 85.168C247.976 86.896 248.68 88.112 249.576 88.816C250.536 89.52 251.752 89.936 253.224 90.064C253.416 90.704 253.544 91.408 253.608 92.176C253.672 92.944 253.704 93.648 253.704 94.288C252.936 94.224 252.072 94.16 251.112 94.096C250.152 94.096 249.128 94.064 248.04 94C247.016 94 245.992 94 244.968 94C244.008 94 243.08 94 242.184 94C241.032 94 239.752 94 238.344 94C236.936 94.064 235.528 94.096 234.12 94.096C232.776 94.16 231.56 94.224 230.472 94.288C230.472 93.712 230.504 93.04 230.568 92.272C230.696 91.504 230.856 90.8 231.048 90.16C233.096 89.968 234.568 89.552 235.464 88.912C236.424 88.272 236.968 87.184 237.096 85.648C237.288 84.112 237.224 81.936 236.904 79.12L233.256 44.176H234.312L213.576 94.192C213 94.448 212.392 94.608 211.752 94.672C211.112 94.8 210.408 94.864 209.64 94.864ZM280.692 94.864C276.34 94.864 272.532 93.936 269.268 92.08C266.004 90.16 263.476 87.504 261.684 84.112C259.892 80.656 258.996 76.624 258.996 72.016C258.996 67.664 259.924 63.76 261.78 60.304C263.636 56.848 266.196 54.128 269.46 52.144C272.724 50.16 276.468 49.168 280.692 49.168C285.236 49.168 289.108 50.128 292.308 52.048C295.572 53.968 298.068 56.656 299.796 60.112C301.524 63.504 302.388 67.472 302.388 72.016C302.388 76.368 301.46 80.272 299.604 83.728C297.812 87.184 295.284 89.904 292.02 91.888C288.82 93.872 285.044 94.864 280.692 94.864ZM281.46 90.256C285.3 90.256 288.148 88.688 290.004 85.552C291.86 82.352 292.788 78.224 292.788 73.168C292.788 69.2 292.18 65.776 290.964 62.896C289.812 59.952 288.244 57.712 286.26 56.176C284.276 54.576 282.1 53.776 279.732 53.776C276.02 53.776 273.236 55.28 271.38 58.288C269.588 61.296 268.692 65.2 268.692 70C268.692 74.288 269.204 77.968 270.228 81.04C271.316 84.048 272.82 86.352 274.74 87.952C276.66 89.488 278.9 90.256 281.46 90.256ZM327.85 94.384C323.562 94.384 320.202 93.136 317.77 90.64C315.338 88.144 314.122 83.696 314.122 77.296V62.8C314.122 60.56 313.802 58.896 313.162 57.808C312.522 56.656 310.73 56.048 307.786 55.984C307.786 55.28 307.818 54.672 307.882 54.16C308.01 53.584 308.202 53.008 308.458 52.432C310.442 52.304 312.586 51.92 314.89 51.28C317.258 50.64 319.178 49.936 320.65 49.168C321.226 49.36 321.706 49.776 322.09 50.416C322.538 50.992 322.762 51.984 322.762 53.392V75.184C322.762 79.472 323.338 82.768 324.49 85.072C325.706 87.376 327.786 88.528 330.73 88.528C333.93 88.528 336.586 87.184 338.698 84.496C340.874 81.808 341.962 77.68 341.962 72.112V62.32C341.962 60.08 341.546 58.416 340.714 57.328C339.946 56.176 337.962 55.568 334.762 55.504C334.762 54.8 334.794 54.192 334.858 53.68C334.922 53.104 335.114 52.528 335.434 51.952C337.93 51.824 340.362 51.504 342.73 50.992C345.162 50.416 347.082 49.808 348.49 49.168C349.066 49.36 349.546 49.776 349.93 50.416C350.378 50.992 350.602 51.984 350.602 53.392V81.232L343.114 84.784C342.794 85.616 342.346 86.448 341.77 87.28C341.194 88.048 340.554 88.784 339.85 89.488C338.186 91.152 336.426 92.4 334.57 93.232C332.714 94 330.474 94.384 327.85 94.384ZM345.034 94.864C344.394 94.544 343.818 94.096 343.306 93.52C342.858 92.88 342.634 91.472 342.634 89.296C342.634 88.592 342.666 87.6 342.73 86.32C342.858 85.04 343.146 83.248 343.594 80.944H350.602C350.602 82.416 350.73 83.664 350.986 84.688C351.242 85.648 351.786 86.352 352.618 86.8C353.514 87.248 354.826 87.472 356.554 87.472C356.554 88.112 356.522 88.848 356.458 89.68C356.394 90.448 356.234 91.184 355.978 91.888C354.378 91.952 352.522 92.272 350.41 92.848C348.298 93.36 346.506 94.032 345.034 94.864ZM371.094 73.456V62.8C371.094 61.264 370.934 60.016 370.614 59.056C370.294 58.096 369.622 57.36 368.598 56.848C367.574 56.336 366.006 56.048 363.894 55.984C363.894 55.28 363.958 54.64 364.086 54.064C364.214 53.488 364.438 52.944 364.758 52.432C366.742 52.304 369.014 51.92 371.574 51.28C374.134 50.64 376.15 49.936 377.622 49.168C378.198 49.36 378.678 49.776 379.062 50.416C379.51 50.992 379.734 51.984 379.734 53.392L371.094 73.456ZM408.15 81.808C408.15 85.136 408.598 87.376 409.494 88.528C410.454 89.616 411.894 90.16 413.814 90.16C414.006 90.736 414.134 91.344 414.198 91.984C414.262 92.624 414.294 93.392 414.294 94.288C412.886 94.16 411.286 94.064 409.494 94C407.702 94 405.814 94 403.83 94C402.55 94 401.206 94 399.798 94C398.39 94.064 397.046 94.096 395.766 94.096C394.55 94.16 393.43 94.224 392.406 94.288C392.406 93.392 392.438 92.624 392.502 91.984C392.566 91.28 392.694 90.672 392.886 90.16C395.19 90.16 396.854 89.584 397.878 88.432C398.966 87.216 399.51 85.008 399.51 81.808V67.216C399.51 62.672 398.678 59.6 397.014 58C395.35 56.336 393.206 55.504 390.582 55.504C388.918 55.504 387.254 56.048 385.59 57.136C383.926 58.16 382.518 59.856 381.366 62.224C380.278 64.528 379.734 67.632 379.734 71.536V81.808C379.734 85.008 380.214 87.216 381.174 88.432C382.134 89.584 383.862 90.16 386.358 90.16C386.55 90.736 386.678 91.344 386.742 91.984C386.806 92.624 386.838 93.392 386.838 94.288C385.942 94.224 384.854 94.16 383.574 94.096C382.294 94.096 380.95 94.064 379.542 94C378.134 94 376.758 94 375.414 94C374.134 94 372.79 94 371.382 94C369.974 94.064 368.63 94.096 367.35 94.096C366.07 94.16 364.95 94.224 363.99 94.288C363.99 93.392 364.022 92.624 364.086 91.984C364.15 91.28 364.278 90.672 364.47 90.16C366.966 90.16 368.694 89.584 369.654 88.432C370.614 87.216 371.094 85.008 371.094 81.808V62.8L379.734 53.392C379.734 54.16 379.702 55.024 379.638 55.984C379.574 56.944 379.382 57.968 379.062 59.056C379.254 58.736 379.446 58.384 379.638 58C379.83 57.552 380.118 57.072 380.502 56.56C381.59 55.088 383.318 53.584 385.686 52.048C388.118 50.448 391.03 49.648 394.422 49.648C396.854 49.648 399.094 50.16 401.142 51.184C403.254 52.144 404.95 53.776 406.23 56.08C407.51 58.32 408.15 61.392 408.15 65.296V81.808ZM437.687 94.864C433.911 94.864 431.095 93.904 429.239 91.984C427.447 90 426.551 86.832 426.551 82.48V56.464C425.591 56.144 424.599 55.888 423.575 55.696C422.551 55.44 421.239 55.28 419.639 55.216C419.639 54.384 419.703 53.68 419.831 53.104C419.959 52.464 420.183 51.76 420.503 50.992H426.551V38.32C427.831 38 429.079 37.488 430.295 36.784C431.575 36.08 432.695 35.312 433.655 34.48C434.295 34.736 434.711 35.12 434.903 35.632C435.095 36.144 435.191 37.424 435.191 39.472V50.992H447.671C447.671 51.632 447.607 52.336 447.479 53.104C447.351 53.808 447.127 54.512 446.807 55.216C444.503 55.28 442.391 55.44 440.471 55.696C438.551 55.888 436.791 56.144 435.191 56.464V80.464C435.191 82.576 435.415 84.336 435.863 85.744C436.311 87.088 436.951 88.08 437.783 88.72C438.615 89.36 439.607 89.68 440.759 89.68C442.103 89.68 443.255 89.488 444.215 89.104C445.239 88.72 446.199 88.144 447.095 87.376C447.927 88.336 448.407 89.392 448.535 90.544C447.511 91.76 445.943 92.784 443.831 93.616C441.783 94.448 439.735 94.864 437.687 94.864ZM454.927 94.288C454.927 93.648 454.959 92.976 455.023 92.272C455.087 91.504 455.215 90.8 455.407 90.16C457.967 90.16 459.695 89.584 460.591 88.432C461.551 87.216 462.031 85.008 462.031 81.808V62.8C462.031 61.264 461.871 60.016 461.551 59.056C461.295 58.032 460.655 57.264 459.631 56.752C458.607 56.24 457.007 55.984 454.831 55.984C454.831 55.28 454.895 54.64 455.023 54.064C455.151 53.488 455.375 52.944 455.695 52.432C456.655 52.432 457.999 52.272 459.727 51.952C461.519 51.632 463.247 51.216 464.911 50.704C466.575 50.192 467.791 49.68 468.559 49.168C469.135 49.36 469.615 49.744 469.999 50.32C470.447 50.896 470.671 51.792 470.671 53.008V81.808C470.671 85.008 471.087 87.216 471.919 88.432C472.815 89.584 474.287 90.16 476.335 90.16C476.527 90.8 476.655 91.536 476.719 92.368C476.783 93.2 476.815 93.84 476.815 94.288C475.727 94.224 474.575 94.16 473.359 94.096C472.143 94.096 470.895 94.064 469.615 94C468.399 94 467.183 94 465.967 94C464.751 94 463.471 94 462.127 94C460.847 94.064 459.599 94.096 458.383 94.096C457.167 94.16 456.015 94.224 454.927 94.288ZM465.583 38.32C463.983 38.32 462.639 37.776 461.551 36.688C460.463 35.6 459.919 34.288 459.919 32.752C459.919 31.024 460.495 29.616 461.647 28.528C462.799 27.44 464.111 26.896 465.583 26.896C467.311 26.896 468.687 27.44 469.711 28.528C470.799 29.616 471.343 31.024 471.343 32.752C471.343 34.224 470.767 35.536 469.615 36.688C468.527 37.776 467.183 38.32 465.583 38.32ZM509.818 50.992C509.818 51.632 509.754 52.368 509.626 53.2C509.498 53.968 509.242 54.672 508.858 55.312C507.002 55.312 505.242 55.44 503.578 55.696C501.978 55.888 500.506 56.208 499.162 56.656V50.992H509.818ZM491.386 47.152C491.386 42.352 492.346 38.352 494.266 35.152C496.25 31.888 498.778 29.456 501.85 27.856C504.922 26.256 508.122 25.456 511.45 25.456C513.946 25.456 515.834 25.712 517.114 26.224C518.394 26.672 519.546 27.216 520.57 27.856C520.442 29.84 520.346 31.792 520.282 33.712C520.218 35.568 520.186 37.36 520.186 39.088C519.354 39.344 518.458 39.536 517.498 39.664C516.538 39.792 515.61 39.856 514.714 39.856C514.714 37.232 514.138 35.056 512.986 33.328C511.834 31.6 509.914 30.736 507.226 30.736C505.498 30.736 504.09 31.28 503.002 32.368C501.978 33.392 501.21 34.896 500.698 36.88C500.25 38.864 500.026 41.296 500.026 44.176V72.688H491.386V47.152ZM492.826 50.992V56.464C491.226 56.016 489.594 55.728 487.93 55.6C486.266 55.408 484.858 55.312 483.706 55.312C483.706 54.48 483.802 53.712 483.994 53.008C484.25 52.304 484.602 51.632 485.05 50.992H492.826ZM500.026 79.888C500.026 82.64 500.314 84.752 500.89 86.224C501.466 87.632 502.394 88.624 503.674 89.2C504.954 89.712 506.586 90.032 508.57 90.16C508.762 90.672 508.89 91.28 508.954 91.984C509.018 92.624 509.05 93.392 509.05 94.288C508.09 94.224 506.938 94.16 505.594 94.096C504.314 94.096 502.938 94.064 501.466 94C499.994 94 498.49 94 496.954 94C494.714 94 492.346 94 489.85 94C487.418 94.064 485.562 94.16 484.282 94.288C484.282 93.392 484.314 92.624 484.378 91.984C484.442 91.28 484.57 90.672 484.762 90.16C486.49 90.032 487.834 89.744 488.794 89.296C489.754 88.784 490.426 87.952 490.81 86.8C491.194 85.584 491.386 83.92 491.386 81.808V72.208H500.026V79.888ZM549.447 65.392C551.111 61.296 551.495 58.512 550.599 57.04C549.767 55.504 547.943 54.48 545.127 53.968C544.871 53.264 544.679 52.592 544.551 51.952C544.487 51.248 544.455 50.544 544.455 49.84C545.927 49.904 547.431 49.968 548.967 50.032C550.503 50.032 552.167 50.032 553.959 50.032C555.751 50.032 557.447 50.032 559.047 50.032C560.647 49.968 562.151 49.904 563.559 49.84C563.559 50.48 563.527 51.152 563.463 51.856C563.463 52.56 563.303 53.264 562.983 53.968C561.831 54.224 560.839 54.672 560.007 55.312C559.239 55.952 558.503 56.944 557.799 58.288C557.095 59.632 556.231 61.52 555.207 63.952L541.095 97.552C539.303 101.904 537.671 105.424 536.199 108.112C534.791 110.8 533.447 112.848 532.167 114.256C530.951 115.664 529.703 116.624 528.423 117.136C527.207 117.648 525.863 117.904 524.391 117.904C522.471 117.904 520.935 117.648 519.783 117.136C518.695 116.624 517.831 116.144 517.191 115.696C516.935 114.736 516.839 113.52 516.903 112.048C516.967 110.64 517.095 109.52 517.287 108.688C518.375 108.88 519.431 109.008 520.455 109.072C521.479 109.2 522.471 109.264 523.431 109.264C525.287 109.264 527.047 108.816 528.711 107.92C530.439 107.024 531.911 105.584 533.127 103.6C534.023 102.256 535.367 99.6 537.159 95.632C538.951 91.728 540.839 87.216 542.823 82.096L549.447 65.392ZM538.215 96.016C536.679 92.624 535.047 89.072 533.319 85.36C531.655 81.584 530.055 77.968 528.519 74.512C526.983 71.056 525.639 68.144 524.487 65.776C523.015 62.576 521.767 60.176 520.743 58.576C519.783 56.976 518.855 55.856 517.959 55.216C517.127 54.576 516.167 54.16 515.079 53.968C514.887 53.392 514.727 52.752 514.599 52.048C514.535 51.344 514.503 50.608 514.503 49.84C516.359 49.904 518.215 49.968 520.071 50.032C521.927 50.032 523.687 50.032 525.351 50.032C527.015 50.032 529.063 50.032 531.495 50.032C533.927 49.968 536.135 49.904 538.119 49.84C538.119 50.672 538.055 51.44 537.927 52.144C537.863 52.784 537.703 53.392 537.447 53.968C533.991 54.544 532.007 55.568 531.495 57.04C530.983 58.448 531.591 60.944 533.319 64.528C534.215 66.384 535.239 68.624 536.391 71.248C537.543 73.808 538.663 76.4 539.751 79.024C540.839 81.584 541.767 83.856 542.535 85.84L538.215 96.016Z" fill="#00131A"/>
</svg>
