<?xml version="1.0" encoding="UTF-8" standalone="no"?>
<!-- Created with Inkscape (http://www.inkscape.org/) -->

<svg
   width="189.56165mm"
   height="185.88371mm"
   viewBox="0 0 189.56165 185.88371"
   version="1.1"
   id="svg1"
   inkscape:version="1.3.2 (091e20e, 2023-11-25, custom)"
   sodipodi:docname="dessin.svg"
   inkscape:export-filename="dessin.png"
   inkscape:export-xdpi="96"
   inkscape:export-ydpi="96"
   xmlns:inkscape="http://www.inkscape.org/namespaces/inkscape"
   xmlns:sodipodi="http://sodipodi.sourceforge.net/DTD/sodipodi-0.dtd"
   xmlns="http://www.w3.org/2000/svg"
   xmlns:svg="http://www.w3.org/2000/svg">
  <sodipodi:namedview
     id="namedview1"
     pagecolor="#505050"
     bordercolor="#eeeeee"
     borderopacity="1"
     inkscape:showpageshadow="0"
     inkscape:pageopacity="0"
     inkscape:pagecheckerboard="0"
     inkscape:deskcolor="#505050"
     inkscape:document-units="mm"
     inkscape:zoom="0.73139029"
     inkscape:cx="397.18876"
     inkscape:cy="561.25984"
     inkscape:window-width="1920"
     inkscape:window-height="1017"
     inkscape:window-x="1912"
     inkscape:window-y="-8"
     inkscape:window-maximized="1"
     inkscape:current-layer="layer1" />
  <defs
     id="defs1" />
  <g
     inkscape:label="Calque 1"
     inkscape:groupmode="layer"
     id="layer1"
     style="display:inline"
     transform="translate(-14.101423,-16.25086)">
    <path
       style="fill:#97cf8c;fill-opacity:1;stroke-width:0.264583"
       d="M 99.865828,201.84737 C 87.594025,200.57257 77.195257,197.56261 66.278556,192.12539 50.000726,184.01798 38.861197,174.3925 29.445517,160.29858 17.426449,142.30776 12.211835,120.34733 14.713764,98.25841 17.672675,72.134908 32.447107,47.665551 53.975432,33.233393 65.868529,25.260497 79.328383,19.862849 93.001473,17.583231 103.01061,15.91448 113.73876,15.810877 123.78883,17.285916 c 15.88656,2.331651 32.20616,9.48887 45.30224,19.868022 3.31422,2.626651 10.70367,9.957083 13.68333,13.574051 11.10416,13.479187 18.27353,30.251371 20.29779,47.485081 1.09519,9.32402 0.65548,19.9634 -1.21542,29.40946 -0.72644,3.66771 -2.61761,10.37021 -3.97399,14.08421 -1.2999,3.55934 -4.60377,10.5013 -6.72428,14.1288 -8.0617,13.79092 -20.1858,25.62939 -34.65259,33.83624 -10.79265,6.12255 -23.21649,10.24823 -35.90982,11.92485 -4.44328,0.5869 -16.13309,0.72829 -20.730262,0.25074 z m 4.827682,-9.23376 c -0.0762,-0.19856 -0.75886,-1.21122 -1.51704,-2.25036 -1.34975,-1.84992 -1.37497,-1.9183 -1.20865,-3.27701 0.38918,-3.17939 0.49033,-6.21169 0.21292,-6.38314 -0.24048,-0.14863 -5.830542,4.75821 -7.286195,6.39567 -0.6478,0.72871 -1.205629,2.34107 -1.220001,3.52632 l -0.01161,0.95776 1.521354,0.28974 c 1.518769,0.28923 5.075392,0.75316 7.077602,0.9232 2.39016,0.20298 2.57414,0.18919 2.43163,-0.18218 z m 16.37656,-0.32937 c 1.77369,-0.23769 3.38714,-0.53233 3.58544,-0.65477 0.28557,-0.17632 0.3791,-1.65527 0.44973,-7.11165 l 0.0892,-6.88904 -5.77772,0.002 -5.77772,0.002 -2.3151,4.45949 c -1.32181,2.54615 -2.31511,4.78224 -2.31511,5.21171 0,0.44194 0.61471,1.78229 1.49029,3.24954 l 1.4903,2.49733 2.9279,-0.16752 c 1.61035,-0.0921 4.37912,-0.362 6.15281,-0.59969 z m -33.451204,-4.55788 0.09094,-2.60243 1.533896,-1.87413 c 1.815525,-2.21822 4.044246,-5.84277 4.416319,-7.18221 0.343884,-1.23797 0.335613,-2.58328 -0.03597,-5.85104 -0.25419,-2.23538 -0.37039,-2.64303 -0.715642,-2.51054 -0.2267,0.087 -0.914625,0.22704 -1.528723,0.3112 -2.18567,0.29958 -4.762643,-1.70091 -4.547894,-3.53051 0.07567,-0.64465 0.259686,-0.76221 1.804054,-1.15259 2.590294,-0.65475 3.346336,-1.14595 6.089261,-3.95619 2.755717,-2.82334 4.243401,-3.75425 6.736113,-4.21505 1.0032,-0.18545 6.80266,-0.28965 16.26125,-0.29216 12.10202,-0.003 14.9982,-0.0738 16.37732,-0.39888 3.29594,-0.777 6.0873,-2.2838 10.4394,-5.63526 1.91802,-1.47703 2.5432,-2.10214 2.41019,-2.40992 -0.36075,-0.83479 -0.8989,-3.06205 -0.89747,-3.71438 8e-4,-0.36847 0.12547,-1.11643 0.27702,-1.66213 0.216,-0.77778 0.40659,-0.99219 0.88196,-0.99219 0.74386,0 2.10387,1.03979 3.33746,2.55164 1.04511,1.28085 1.79757,1.60651 2.65351,1.14842 0.51474,-0.27548 0.56637,-0.45782 0.42392,-1.49709 -0.44392,-3.23877 -2.57507,-7.43091 -5.20908,-10.24667 -5.89753,-6.30449 -14.8922,-8.46764 -21.61053,-5.19718 -2.51974,1.2266 -4.21214,2.69453 -5.67921,4.92593 -0.61486,0.9352 -1.22832,1.70037 -1.36324,1.70037 -0.41445,0 0.0183,-2.46287 0.70031,-3.9861 1.73731,-3.87991 5.93855,-7.12997 10.99635,-8.50669 2.69442,-0.73342 8.09059,-0.78671 10.62131,-0.10489 2.38001,0.64122 6.68947,2.74865 8.63358,4.22203 5.61563,4.25592 9.48789,11.13733 10.06937,17.8943 l 0.17022,1.97802 3.2428,3.22637 c 1.78354,1.7745 3.37387,3.47128 3.53407,3.77062 0.42145,0.78749 -0.27685,2.30215 -1.32657,2.87744 -2.19241,1.20152 -1.87625,1.08419 -4.70789,0.92163 l -3.03633,-0.43624 c -1.19043,-0.31934 -2.19994,-0.1602 -2.75717,0.43465 -0.76659,0.81835 -1.01565,1.56958 -1.66411,5.01945 -0.30851,1.64131 -0.74523,3.63904 -0.97048,4.43941 -0.99782,3.54541 -3.44067,7.24182 -6.44625,9.75416 -4.53944,3.79447 -4.74124,4.16122 -4.74124,8.61676 0,3.30963 -0.3231,3.18667 3.57187,1.35944 5.21162,-2.4449 12.17625,-6.76679 17.30066,-10.7359 3.19641,-2.47578 9.49355,-8.6133 12.20912,-11.89965 7.69715,-9.31498 13.20385,-19.8017 16.25824,-30.96148 0.92946,-3.39595 2.14759,-9.20645 1.96139,-9.35586 -0.29339,-0.23542 -6.57676,-3.91061 -11.48149,-6.7156 -14.01311,-8.01405 -12.85744,-7.24367 -14.30666,-9.53692 -2.47569,-3.91755 -16.85811,-25.596721 -17.64165,-26.591925 l -0.79001,-1.003432 -0.91713,1.071457 c -0.50442,0.589301 -1.02657,1.003816 -1.16034,0.921144 -0.23489,-0.145174 -4.22254,-4.834284 -6.52316,-7.670654 l -1.12229,-1.383631 2.68078,-2.874058 c 1.47442,-1.580734 3.11054,-3.39005 3.63582,-4.020703 1.08098,-1.297829 2.05699,-1.896065 3.0934,-1.896065 0.92582,0 1.83703,0.961276 7.12207,7.513404 2.32834,2.886552 5.40701,6.692911 6.84151,8.458581 1.43449,1.765668 4.67181,5.77015 7.19403,8.898852 17.84319,22.13366 19.2036,23.809 21.6733,26.69076 l 2.12658,2.48138 0.1773,-1.29076 c 0.28652,-2.08587 0.26232,-11.38407 -0.0371,-14.25534 -1.84791,-17.720103 -9.66105,-34.90949 -21.76736,-47.889585 -5.10073,-5.46888 -9.0793,-8.847265 -15.28221,-12.976837 C 146.74096,33.138645 134.81723,28.409104 123.29627,26.572653 112.35178,24.828093 100.48695,25.16272 89.958765,27.512879 73.996698,31.076014 58.966979,39.232634 47.882559,50.347611 37.542741,60.715933 29.563212,74.660448 26.070942,88.4642 c -1.618237,6.39634 -2.522593,13.03482 -2.522593,18.51723 v 3.57151 l 0.418935,8.02734 0.326139,2.61329 c 1.727412,13.84143 7.894966,28.15751 17.029594,39.52897 4.886711,6.08334 8.722465,9.82175 14.595136,14.22474 3.080901,2.30988 6.950027,4.93828 7.683992,5.21992 0.390382,0.14981 0.42745,-1.11015 0.42745,-14.52905 v -14.69308 l -11.57552,-0.11462 c -11.935963,-0.11819 -13.590743,-0.25832 -14.46553,-1.22495 -0.582882,-0.64408 -0.303329,-1.21534 0.859954,-1.75733 3.661577,-1.70597 6.621671,-3.30942 8.89486,-4.81825 3.218153,-2.13606 7.710088,-5.95361 9.014558,-7.6612 l 0.96553,-1.26389 -10.406821,-0.1503 c -11.170724,-0.16132 -12.437684,-0.30816 -12.602403,-1.46057 -0.104749,-0.73285 0.189047,-0.93766 2.989331,-2.08386 5.763162,-2.35896 11.355779,-6.09222 15.868541,-10.59277 l 2.387709,-2.38125 -9.128125,-0.13229 c -9.816473,-0.14227 -10.619168,-0.25515 -10.799495,-1.51867 -0.06707,-0.46995 0.144907,-0.6909 1.058333,-1.10312 7.600606,-3.43006 10.153788,-4.8979 14.167416,-8.14498 2.234306,-1.80758 4.833869,-4.39195 4.834366,-4.80612 1.11e-4,-0.0934 -2.931538,-0.13594 -6.514774,-0.0945 -5.540333,0.064 -6.609075,0.0136 -7.143954,-0.33683 -1.294558,-0.84823 -0.753372,-1.66733 2.016858,-3.05255 4.394951,-2.19764 11.777146,-7.91147 14.650048,-11.33916 l 1.024008,-1.221752 -5.15086,-0.132292 c -5.243394,-0.134668 -6.02528,-0.294182 -6.02528,-1.229233 0,-0.203877 0.870167,-1.469221 1.933708,-2.811873 2.521905,-3.183752 9.919774,-13.55096 14.626796,-20.497667 0.759201,-1.120442 1.486567,-1.917449 1.750613,-1.918229 0.564806,-0.0016 0.875665,0.402815 5.794287,7.539294 3.439375,4.990221 9.958012,13.856573 12.319873,16.756925 1.458987,1.791626 0.06968,2.228778 -6.695186,2.106668 -2.381937,-0.043 -4.330639,-0.0084 -4.330443,0.07684 0.0011,0.502052 2.315877,2.964119 4.737457,5.038989 3.427852,2.93707 7.910216,5.95967 11.494058,7.75081 1.97924,0.98918 2.70732,1.4881 2.76546,1.895 0.171217,1.19835 -0.356315,1.29136 -8.122611,1.43206 l -7.302137,0.13229 2.116667,2.12603 c 3.850719,3.86774 8.399602,6.92158 14.16445,9.50914 3.549136,1.59303 4.120893,1.98243 3.870176,2.63579 -0.350617,0.91369 -1.496451,1.04055 -10.758585,1.19109 l -9.128125,0.14837 2.914047,2.91041 c 4.351316,4.3459 9.723779,7.92867 15.049632,10.03625 1.375487,0.54432 2.710881,1.22172 2.96754,1.50532 0.44676,0.49367 0.444376,0.53793 -0.05591,1.03821 -0.84714,0.84714 -4.165803,1.08855 -13.704413,0.99688 -4.744562,-0.0456 -8.626393,-0.002 -8.62629,0.0979 2.64e-4,0.37509 4.381881,4.79034 6.225468,6.27343 3.663178,2.94687 8.293939,5.70105 12.105471,7.19982 2.23402,0.87845 2.885175,1.76042 1.748761,2.36861 -1.490888,0.7979 -5.140341,1.04089 -15.647744,1.0419 l -10.517188,0.001 v 16.55355 16.55355 l 2.248832,1.03897 c 3.985826,1.84145 12.335118,4.87035 14.46127,5.24615 0.0955,0.0169 0.214566,-1.1404 0.264583,-2.57173 z M 167.3494,118.99234 c -2.7649,-1.54362 -11.99224,-6.68085 -20.50521,-11.41606 -8.51297,-4.7352 -15.92924,-8.90784 -16.4806,-9.27253 -0.90767,-0.60036 -1.66438,-1.97889 -8.00208,-14.577867 -7.56219,-15.033159 -11.46445,-22.51964 -11.72986,-22.503683 -0.0922,0.0056 -1.06064,1.276215 -2.15205,2.823716 -10.657284,15.110909 -14.314982,20.189589 -14.528194,20.172256 -0.0859,-0.007 -0.632433,-0.683033 -1.214517,-1.502333 -0.582083,-0.819301 -2.871874,-3.862404 -5.088426,-6.762454 -3.593741,-4.701908 -3.993034,-5.325726 -3.687805,-5.761503 0.188259,-0.268777 4.680706,-5.098907 9.983218,-10.733622 5.302512,-5.634715 10.396874,-11.087314 11.320804,-12.116892 0.92394,-1.029576 1.93597,-2.016565 2.24897,-2.193309 0.8113,-0.458134 2.331,-0.413451 3.04928,0.08966 0.51267,0.359084 12.98447,15.207411 20.86255,24.837945 1.1904,1.455208 3.68808,4.503962 5.55039,6.775008 1.86232,2.271049 6.18399,7.555034 9.60373,11.742188 3.41974,4.18716 7.17632,8.75841 8.34795,10.15833 1.17164,1.39992 4.20391,5.10515 6.73838,8.23385 11.85853,14.63884 11.99299,14.81927 11.04128,14.81528 -0.1819,-7.9e-4 -2.59292,-1.26435 -5.35781,-2.80798 z m -33.33751,70.41903 c 1.30969,-0.39752 2.40835,-0.74792 2.44146,-0.77868 0.0814,-0.0756 -1.92739,-7.22771 -2.31031,-8.22578 l -0.30453,-0.79375 -0.39677,0.92604 c -0.54237,1.26584 -2.09415,6.98138 -2.32662,8.56945 -0.14985,1.02363 -0.11583,1.26546 0.16309,1.15945 0.19384,-0.0737 1.424,-0.45921 2.73368,-0.85673 z"
       id="path1"
       sodipodi:nodetypes="sssssssssssssssssssssscsssscsscccssscsccscsssssssssssssssssssssssssssscsssccssssssssssssscssscssssssscsssssssssccssssscssssscsssscssssssssscsssscssscsssscsssscssssscsssscccssssssssssssssssssssssssssscsssss" />
  </g>
</svg>
